<?xml version="1.0" encoding="UTF-8"?>
<svg xmlns="http://www.w3.org/2000/svg" xmlns:xlink="http://www.w3.org/1999/xlink" viewBox="0 0 64 64" width="64px" height="64px">
<defs>
<linearGradient id="linear0" gradientUnits="userSpaceOnUse" x1="86" y1="24.410561" x2="86" y2="146.941757" gradientTransform="matrix(0.372093,0,0,0.372093,0,0)">
<stop offset="0" style="stop-color:rgb(100%,50.588238%,46.666667%);stop-opacity:1;"/>
<stop offset="1" style="stop-color:rgb(69.411767%,16.470589%,35.686275%);stop-opacity:1;"/>
</linearGradient>
<linearGradient id="linear1" gradientUnits="userSpaceOnUse" x1="106.15625" y1="69.875" x2="106.15625" y2="118.25" gradientTransform="matrix(0.372093,0,0,0.372093,0,0)">
<stop offset="0" style="stop-color:rgb(100%,91.37255%,90.588236%);stop-opacity:1;"/>
<stop offset="1" style="stop-color:rgb(86.666667%,43.137255%,58.823532%);stop-opacity:1;"/>
</linearGradient>
<linearGradient id="linear2" gradientUnits="userSpaceOnUse" x1="65.84375" y1="56.4375" x2="65.84375" y2="118.25" gradientTransform="matrix(0.372093,0,0,0.372093,0,0)">
<stop offset="0" style="stop-color:rgb(100%,91.37255%,90.588236%);stop-opacity:1;"/>
<stop offset="1" style="stop-color:rgb(86.666667%,43.137255%,58.823532%);stop-opacity:1;"/>
</linearGradient>
</defs>
<g id="surface5445701">
<path style=" stroke:none;fill-rule:nonzero;fill:url(#linear0);" d="M 50 55 L 14 55 C 11.242188 55 9 52.757812 9 50 L 9 14 C 9 11.242188 11.242188 9 14 9 L 50 9 C 52.757812 9 55 11.242188 55 14 L 55 50 C 55 52.757812 52.757812 55 50 55 Z M 14 11 C 12.347656 11 11 12.347656 11 14 L 11 50 C 11 51.652344 12.347656 53 14 53 L 50 53 C 51.652344 53 53 51.652344 53 50 L 53 14 C 53 12.347656 51.652344 11 50 11 Z M 14 11 "/>
<path style=" stroke:none;fill-rule:nonzero;fill:url(#linear1);" d="M 34 43 L 34 41 C 34 40.449219 34.449219 40 35 40 L 41 40 L 41 37 L 38 37 C 35.789062 37 34 35.210938 34 33 L 34 30 C 34 27.789062 35.789062 26 38 26 L 42 26 C 42.550781 26 43 26.449219 43 27 L 43 29 C 43 29.550781 42.550781 30 42 30 L 38 30 L 38 33 L 41 33 C 43.210938 33 45 34.789062 45 37 L 45 40 C 45 42.210938 43.210938 44 41 44 L 35 44 C 34.449219 44 34 43.550781 34 43 Z M 34 43 "/>
<path style=" stroke:none;fill-rule:nonzero;fill:url(#linear2);" d="M 22 21 C 19.789062 21 18 22.789062 18 25 L 18 43 C 18 43.550781 18.449219 44 19 44 L 21 44 C 21.550781 44 22 43.550781 22 43 L 22 36 L 27 36 C 29.210938 36 31 34.210938 31 32 L 31 25 C 31 22.789062 29.210938 21 27 21 Z M 22 31 L 22 26 C 22 25.449219 22.449219 25 23 25 L 26 25 C 26.550781 25 27 25.449219 27 26 L 27 31 C 27 31.550781 26.550781 32 26 32 L 23 32 C 22.449219 32 22 31.550781 22 31 Z M 22 31 "/>
</g>
</svg>
