<?xml version="1.0" encoding="UTF-8"?>
<svg xmlns="http://www.w3.org/2000/svg" xmlns:xlink="http://www.w3.org/1999/xlink" viewBox="0 0 48 48" width="48px" height="48px">
<g id="surface5863699">
<path style=" stroke:none;fill-rule:nonzero;fill:rgb(90.588236%,29.803923%,23.529412%);fill-opacity:1;" d="M 36 6 L 12 6 C 8.6875 6 6 8.6875 6 12 L 6 36 C 6 39.3125 8.6875 42 12 42 L 36 42 C 39.3125 42 42 39.3125 42 36 L 42 12 C 42 8.6875 39.3125 6 36 6 Z M 36 6 "/>
<path style=" stroke:none;fill-rule:nonzero;fill:rgb(3.529412%,13.725491%,27.843139%);fill-opacity:1;" d="M 36 40 L 12 40 C 9.789062 40 8 38.210938 8 36 L 8 12 C 8 9.789062 9.789062 8 12 8 L 36 8 C 38.210938 8 40 9.789062 40 12 L 40 36 C 40 38.210938 38.210938 40 36 40 Z M 36 40 "/>
<path style=" stroke:none;fill-rule:nonzero;fill:rgb(100%,100%,100%);fill-opacity:1;" d="M 14.507812 15.371094 C 14.507812 15.265625 14.585938 15.175781 14.6875 15.164062 C 15.089844 15.121094 16.203125 15.03125 18.585938 15.03125 C 22.175781 15.03125 24.6875 16.453125 24.6875 20.347656 C 24.6875 23.859375 22.296875 25.921875 18.4375 25.921875 C 18.214844 25.921875 17.988281 25.921875 17.222656 25.921875 L 17.222656 31.800781 C 17.222656 31.898438 17.140625 31.980469 17.042969 31.980469 L 14.6875 31.980469 C 14.589844 31.980469 14.507812 31.898438 14.507812 31.800781 Z M 17.222656 23.445312 C 17.222656 23.445312 18.410156 23.453125 18.675781 23.453125 C 20.878906 23.453125 21.882812 22.148438 21.882812 20.398438 C 21.882812 18.761719 20.90625 17.480469 18.871094 17.480469 C 18.03125 17.480469 17.222656 17.53125 17.222656 17.53125 Z M 17.222656 23.445312 "/>
<path style=" stroke:none;fill-rule:nonzero;fill:rgb(100%,100%,100%);fill-opacity:1;" d="M 26.15625 28.96875 C 26.15625 28.875 26.257812 28.816406 26.339844 28.867188 C 26.84375 29.203125 27.863281 29.78125 29.449219 29.78125 C 30.484375 29.78125 31.136719 29.335938 31.136719 28.609375 C 31.136719 27.808594 30.03125 27.222656 29.121094 26.730469 C 28.214844 26.238281 26.175781 25.445312 26.175781 22.902344 C 26.175781 20.648438 27.976562 19.289062 30.433594 19.289062 C 31.371094 19.289062 32.410156 19.433594 33.109375 19.6875 C 33.222656 19.730469 33.292969 19.84375 33.292969 19.964844 L 33.292969 22.257812 C 33.292969 22.351562 33.195312 22.410156 33.117188 22.359375 C 32.675781 22.074219 31.710938 21.632812 30.378906 21.632812 C 29.269531 21.632812 28.78125 22.175781 28.78125 22.722656 C 28.78125 23.6875 30.0625 24.089844 31.214844 24.765625 C 33.011719 25.765625 33.847656 26.742188 33.847656 28.273438 C 33.847656 30.777344 31.980469 32.183594 29.449219 32.183594 C 28.144531 32.183594 26.914062 31.898438 26.289062 31.519531 C 26.199219 31.464844 26.15625 31.367188 26.15625 31.265625 Z M 26.15625 28.96875 "/>
</g>
</svg>
